<?xml version='1.0' encoding='iso-8859-1'?>
<svg version="1.1" xmlns="http://www.w3.org/2000/svg" viewBox="0 0 296 296" xmlns:xlink="http://www.w3.org/1999/xlink" enable-background="new 0 0 296 296" fill="#FF7555" stroke="#FF75555">
  <g>
    <path d="m245.328,256.334c-14.999,0-22.952-6.559-29.342-11.828-5.753-4.744-9.909-8.172-19.162-8.172-9.251,0-13.407,3.428-19.159,8.172-6.389,5.27-14.341,11.828-29.339,11.828-14.998,0-22.95-6.559-29.34-11.828-5.753-4.744-9.908-8.172-19.16-8.172-9.25,0-13.406,3.428-19.157,8.172-6.39,5.27-14.342,11.828-29.34,11.828-14.998,0-23.366-6.559-29.755-11.828-1.932-1.594-3.574-3.032-5.574-4.249v55.743h264v-56.015c-2,1.271-3.669,2.808-5.747,4.521-6.389,5.269-13.926,11.828-28.925,11.828z"/>
    <path d="m16,181v41.599c7,2.378 11.709,6.227 15.755,9.563 5.751,4.744 10.115,8.172 19.365,8.172 9.251,0 13.511-3.428 19.263-8.172 6.389-5.27 14.393-11.828 29.39-11.828 14.998,0 22.976,6.559 29.366,11.828 5.753,4.744 9.921,8.172 19.173,8.172 9.251,0 13.414-3.428 19.166-8.172 6.389-5.27 14.344-11.828 29.342-11.828 14.999,0 22.954,6.559 29.343,11.828 5.753,4.744 9.91,8.172 19.163,8.172 9.252,0 12.993-3.428 18.746-8.172 4.216-3.477 8.926-7.502 15.926-9.848v-41.314h-263.998z"/>
    <rect width="198" x="49" y="99" height="65"/>
    <path d="M90,47.426c5-2.816,8.665-8.219,8.665-14.426c0-9.112-16.417-33-16.417-33S65.624,23.888,65.624,33   c0,6.209,3.376,11.611,8.376,14.427V82h16V47.426z"/>
    <path d="M156,47.123c5-2.889,8.167-8.124,8.167-14.123c0-9.112-16.417-33-16.417-33s-16.625,23.888-16.625,33   c0,6.408,3.874,11.951,8.874,14.684V82h16V47.123z"/>
    <path d="M222,47.426c5-2.816,8.665-8.219,8.665-14.426c0-9.112-16.417-33-16.417-33s-16.625,23.888-16.625,33   c0,6.209,3.376,11.611,8.376,14.427V82h16V47.426z"/>
  </g>
</svg>
