<?xml version="1.0" ?><svg width="512px" height="512px" fill="green" viewBox="0 0 512 512" xmlns="http://www.w3.org/2000/svg"><g id="Antivirus"><path d="M249.1646,34.1932,69.1917,91.6015A22.5422,22.5422,0,0,0,53.5,113.0776v135.154A207.53,207.53,0,0,0,161.46,430.3155l83.7517,45.7981a22.4855,22.4855,0,0,0,21.576,0l83.7558-45.7983A207.5144,207.5144,0,0,0,458.5,248.2431V113.0155A22.4573,22.4573,0,0,0,442.8675,91.62L262.8354,34.1932A22.4922,22.4922,0,0,0,249.1646,34.1932Zm81.2919,234.0905c.2286.0758.4659.0417.69.1351l22.57,9.3494,1.1338-2.74a9.9026,9.9026,0,1,1,18.2988,7.5761l-4.9175,11.8719c-.0044.0066,0,.0132-.0044.02l-.0131.0231-4.9175,11.8685a9.9026,9.9026,0,0,1-18.2989-7.5761l1.1382-2.7466L323.57,286.7176c-.2285-.0945-.3691-.2856-.5845-.3933A76.7719,76.7719,0,0,1,294.32,315.003c.1055.2132.2944.3538.3867.5779l9.3472,22.5659,2.7466-1.1382a9.9026,9.9026,0,0,1,7.5762,18.2989l-11.8741,4.92c-.0088.0022-.0088.0088-.0175.011a.1557.1557,0,0,0-.022.0044l-11.87,4.9175a9.9026,9.9026,0,0,1-7.5762-18.2988l2.7378-1.1349-9.3472-22.5692c-.0923-.2219-.0571-.4549-.1318-.679a76.7627,76.7627,0,0,1-40.5484-.011c-.0747.2286-.0439.4637-.1362.69l-9.3472,22.5659,2.7466,1.1382A9.9026,9.9026,0,1,1,221.415,365.16l-11.87-4.9153c-.0132-.0044-.022-.0022-.0308-.0066s-.0131-.0121-.0263-.0153l-11.8653-4.9153a9.9026,9.9026,0,0,1,7.5762-18.2989l2.7466,1.1371,9.3472-22.5648c.0966-.2274.2856-.37.3955-.5867A76.7432,76.7432,0,0,1,189.01,286.3276c-.2154.1066-.356.2966-.58.39l-22.5659,9.3494,1.1382,2.7444a9.9026,9.9026,0,1,1-18.2989,7.5761l-9.8525-23.7832a9.9026,9.9026,0,1,1,18.2988-7.5761l1.1338,2.7422,22.57-9.3516c.2241-.0923.457-.0571.6856-.1318a76.7436,76.7436,0,0,1,.0088-40.5462c-.2286-.0758-.4659-.045-.6944-.1384l-22.5659-9.345-1.1382,2.7444a9.9026,9.9026,0,1,1-18.2988-7.5762l9.8525-23.792A9.9026,9.9026,0,0,1,167.002,197.21l-1.1382,2.7488,22.5659,9.345c.2285.0944.3735.2878.5889.3966a76.76,76.76,0,0,1,28.6347-28.66c-.1054-.2131-.268-.3768-.36-.6l-9.3516-22.5637-2.7422,1.1359a9.9026,9.9026,0,1,1-7.5762-18.2988l23.792-9.8525a9.9026,9.9026,0,0,1,7.5762,18.2988l-2.751,1.1382,9.3516,22.5659c.0923.2241.0571.4592.1318.6856a76.7639,76.7639,0,0,1,40.5484.01c.0747-.23.04-.4669.1362-.6954L285.76,150.296l-2.7422-1.136a9.9026,9.9026,0,1,1,7.5762-18.2988l23.7832,9.8525a9.9026,9.9026,0,1,1-7.5762,18.2988l-2.7422-1.1359L294.707,180.44c-.0923.2263-.2592.3922-.3691.6075A76.7537,76.7537,0,0,1,322.99,209.6936c.2154-.1066.356-.2978.58-.39l22.5659-9.3428-1.1382-2.751a9.9026,9.9026,0,0,1,18.2989-7.5762l4.9219,11.8905c.0043.0033.0087.0055.0087.01v.011l4.9219,11.8806a9.9026,9.9026,0,1,1-18.2988,7.5762l-1.1338-2.7422-22.57,9.3428c-.2241.0923-.457.0615-.6812.1362A76.7844,76.7844,0,0,1,330.4565,268.2837Z"/></g></svg>