<?xml version="1.0" encoding="utf-8"?>

<svg version="1.1" id="Icons" xmlns="http://www.w3.org/2000/svg" xmlns:xlink="http://www.w3.org/1999/xlink" x="0px" y="0px"
	 viewBox="0 0 32 32" style="enable-background:new 0 0 32 32;" xml:space="preserve">
<style type="text/css">
	.st0{fill:none;stroke:#000000;stroke-width:2;stroke-linecap:round;stroke-linejoin:round;stroke-miterlimit:10;}
	.st1{fill:none;stroke:#000000;stroke-width:2;stroke-linejoin:round;stroke-miterlimit:10;}
</style>
<path class="st0" d="M21.12,13c-3.75,0-6.88,2.66-7.67,6.22h-0.64c-2.65,0-4.81,2.2-4.81,4.89S10.17,29,12.81,29h1.31h7
	c4.35,0,7.88-3.58,7.88-8S25.47,13,21.12,13z"/>
<line class="st0" x1="5" y1="14" x2="3" y2="14"/>
<line class="st0" x1="20.36" y1="7.64" x2="21.78" y2="6.22"/>
<line class="st0" x1="14" y1="5" x2="14" y2="3"/>
<line class="st0" x1="7.64" y1="7.64" x2="6.22" y2="6.22"/>
<path class="st0" d="M11.44,19.43C9.41,18.47,8,16.4,8,14c0-3.31,2.69-6,6-6c3.01,0,5.5,2.21,5.93,5.1"/>
</svg>
